<svg width="190" height="190" viewBox="0 0 190 190" fill="none" xmlns="http://www.w3.org/2000/svg">
<g id="dddynamite (6) 1">
<path id="Vector" d="M87.4599 61.0384L87.9415 62.9431L89.6021 61.8953L145.249 26.7852L99.0166 73.7228L97.6524 75.1079L99.3843 75.9914L126.989 90.0799L96.0051 90.7962L93.5399 90.8532L94.8205 92.9612L125.365 143.216L80.8716 98.9975L79.7316 97.8642L78.7436 99.1334L44.27 143.408L65.0142 92.7607L65.7989 90.8437L63.7279 90.7962L32.7446 90.0799L60.3497 75.9914L61.9182 75.1905L60.8067 73.8235L23.2617 27.6136L70.0511 61.8402L71.7564 63.0875L72.2741 61.0384L79.8665 30.9918L87.4589 61.0384H87.4599Z" fill="#E6EAFF"/>
<path id="Vector_2" d="M96.9599 70.5384L97.4415 72.4431L99.1021 71.3953L154.749 36.2852L108.517 83.2228L107.152 84.6079L108.884 85.4914L136.489 99.5799L105.505 100.296L103.04 100.353L104.32 102.461L134.865 152.716L90.3716 108.498L89.2316 107.364L88.2436 108.633L53.77 152.908L74.5142 102.261L75.2989 100.344L73.2279 100.296L42.2446 99.5799L69.8497 85.4914L71.4182 84.6905L70.3067 83.3235L32.7617 37.1136L79.5511 71.3402L81.2564 72.5875L81.7741 70.5384L89.3665 40.4918L96.9589 70.5384H96.9599Z" stroke="#E6EAFF" stroke-width="2.375" stroke-linecap="round" stroke-linejoin="round"/>
</g>
</svg>
