<svg width="93" height="93" viewBox="0 0 93 93" fill="none" xmlns="http://www.w3.org/2000/svg">
<g id="fluent:hat-graduation-sparkle-28-regular" clip-path="url(#clip0_191_4004)">
<path id="Vector" d="M60.4931 23.9161C61.5596 25.0674 62.3429 26.4516 62.7807 27.9587L64.1944 32.9035C64.3146 33.2842 64.5496 33.6185 64.8672 33.8603C65.1849 34.1022 65.5696 34.2397 65.9686 34.2542C66.3676 34.2686 66.7613 34.1593 67.0956 33.941C67.4299 33.7228 67.6885 33.4064 67.8359 33.0354L69.6036 28.2058C70.1517 26.7376 71.0349 25.4175 72.183 24.3508C73.331 23.2841 74.7122 22.5 76.2167 22.0612L81.1614 20.6506C81.5422 20.5305 81.8764 20.2955 82.1182 19.9778C82.3601 19.6601 82.4977 19.2754 82.5121 18.8764C82.5266 18.4774 82.4172 18.0837 82.199 17.7494C81.9807 17.4151 81.6644 17.1565 81.2933 17.0091L81.1984 16.9801L76.3655 15.2154C74.8972 14.668 73.5768 13.7858 72.509 12.639C71.4413 11.4921 70.6556 10.1121 70.2142 8.60854L68.8037 3.66382C68.6851 3.28167 68.4507 2.94581 68.1329 2.70269C67.8151 2.45957 67.4296 2.3212 67.0297 2.30672C66.6299 2.29224 66.2354 2.40236 65.9008 2.62185C65.5663 2.84135 65.3082 3.15937 65.1622 3.53193L63.3945 8.36155L63.3486 8.48143C62.7994 9.91225 61.9311 11.1989 60.8097 12.2436C59.6883 13.2882 58.3434 14.0632 56.8773 14.5096L51.9325 15.9202C51.5518 16.0403 51.2175 16.2753 50.9757 16.593C50.7339 16.9107 50.5963 17.2954 50.5818 17.6944C50.5674 18.0934 50.6768 18.487 50.895 18.8214C51.1132 19.1557 51.4296 19.4143 51.8006 19.5616L56.6304 21.3262C58.1041 21.8785 59.4249 22.7644 60.4931 23.9161ZM87.7152 36.1894L90.6131 37.2475L90.6733 37.2624C90.8975 37.3494 91.089 37.5041 91.2212 37.7049C91.3534 37.9057 91.4197 38.1428 91.411 38.383C91.4023 38.6233 91.319 38.8549 91.1726 39.0457C91.0262 39.2364 90.824 39.3768 90.5942 39.4473L87.6241 40.2961C86.7223 40.5601 85.8944 41.0305 85.2061 41.6701C84.5179 42.3098 83.9881 43.101 83.6589 43.981L82.5976 46.8788C82.5091 47.1014 82.354 47.2912 82.1534 47.4222C81.9528 47.5531 81.7166 47.6187 81.4772 47.6101C81.2378 47.6014 81.007 47.5189 80.8164 47.3737C80.6258 47.2286 80.4848 47.0281 80.4127 46.7997L79.5638 43.8327C79.3015 42.9282 78.8315 42.0974 78.1913 41.4068C77.551 40.7161 76.7582 40.1846 75.8761 39.8546L72.9751 38.7964C72.7509 38.7094 72.5594 38.5548 72.4272 38.354C72.295 38.1531 72.2286 37.9161 72.2373 37.6758C72.246 37.4355 72.3294 37.2039 72.4758 37.0132C72.6222 36.8225 72.8243 36.6821 73.0542 36.6115L76.0243 35.7628C76.9157 35.4909 77.7322 35.0166 78.4101 34.377C79.0879 33.7374 79.6088 32.9499 79.932 32.0757L80.9933 29.178C81.0817 28.9554 81.2369 28.7655 81.4375 28.6346C81.6381 28.5037 81.8743 28.438 82.1137 28.4467C82.3531 28.4554 82.5839 28.5379 82.7745 28.683C82.9651 28.8281 83.1061 29.0287 83.1782 29.2571L84.0239 32.2239C84.2885 33.1261 84.7599 33.954 85.4008 34.6419C86.0416 35.3297 86.834 35.8617 87.7152 36.1894ZM40.4258 12.5289C42.387 11.4141 44.5951 10.8052 46.8505 10.7574C49.106 10.7095 51.3379 11.2241 53.3447 12.2547L51.0335 12.9258C49.9994 13.2298 49.0907 13.8585 48.4417 14.7191C48.2304 14.9897 48.0504 15.2806 47.8987 15.5822C46.124 15.4273 44.3441 15.8157 42.7952 16.6959L13.7049 33.2211L41.2953 52.7234C42.6906 53.7097 44.3432 54.2679 46.0508 54.3297C47.7584 54.3916 49.447 53.9544 50.9101 53.0716L70.6865 41.138C71.0245 41.4007 71.401 41.6096 71.8027 41.7573L74.7695 42.8563C75.1748 43.0054 75.5387 43.2488 75.8312 43.5664L75.8713 43.6094L71.9408 45.9811L71.1713 67.2293C71.137 68.1748 70.5983 68.7438 69.9667 69.3159C69.6526 69.5988 69.2033 69.9919 68.6172 70.4568C67.0316 71.7133 65.3433 72.8344 63.5702 73.8083C59.2228 76.2097 52.9166 78.5624 45.1833 78.2823C37.4532 78.0024 31.3305 75.1995 27.1683 72.49C25.4702 71.3903 23.8675 70.15 22.3769 68.7821C21.9415 68.384 21.5191 67.9719 21.1103 67.5464C20.5251 66.9271 20.0284 66.3334 20.063 65.3783L20.8326 44.1301L11.4766 37.5191L10.7694 57.0456C10.7464 57.681 10.4719 58.2812 10.0064 58.7142C9.54082 59.1472 8.92233 59.3776 8.28695 59.3545C7.65157 59.3315 7.05135 59.0571 6.61834 58.5915C6.18534 58.126 5.955 57.5074 5.97801 56.8721L6.81675 33.7136C6.82172 33.5763 6.83936 33.4426 6.86315 33.3155C6.801 32.8425 6.88137 32.3618 7.09398 31.9347C7.30658 31.5077 7.64177 31.1538 8.05664 30.9183L40.4258 12.5289ZM25.5105 47.4372L24.8906 64.5521C26.3862 66.0176 28.024 67.3305 29.7798 68.4713C33.4298 70.8424 38.716 73.2504 45.3568 73.4909C52.0009 73.7316 57.4475 71.7123 61.2561 69.6113C63.0899 68.6004 64.8184 67.4095 66.4161 66.056L67.0359 48.9411L53.3872 57.1786C51.1261 58.543 48.5163 59.2187 45.8772 59.1231C43.2381 59.0275 40.684 58.1648 38.5275 56.6404L25.5105 47.4372Z" fill="white" fill-opacity="0.21"/>
</g>
<defs>
<clipPath id="clip0_191_4004">
<rect width="89.4981" height="89.4981" fill="white" transform="translate(3.23926) rotate(2.07419)"/>
</clipPath>
</defs>
</svg>
