<svg width="204" height="187" viewBox="0 0 204 187" fill="none" xmlns="http://www.w3.org/2000/svg">
<g id="Group 361">
<path id="Ellipse 67" d="M76.7468 146.107C66.04 141.784 56.6465 134.743 49.4947 125.678C42.343 116.614 37.6806 105.839 35.9684 94.4209C34.2563 83.0023 35.5536 71.3345 39.7322 60.5709C43.9109 49.8073 50.8261 40.3205 59.7943 33.0482C68.7626 25.7759 79.4735 20.97 90.8682 19.1053C102.263 17.2407 113.947 18.382 124.765 22.4163C135.584 26.4507 145.162 33.2385 152.554 42.1087C159.945 50.979 164.894 61.6246 166.911 72.9934L165.882 73.1759C163.897 61.9862 159.026 51.5082 151.751 42.7776C144.476 34.047 135.048 27.3662 124.4 23.3953C113.752 19.4245 102.252 18.3012 91.0369 20.1365C79.8217 21.9717 69.2795 26.702 60.4524 33.8598C51.6254 41.0175 44.8191 50.355 40.7063 60.9491C36.5935 71.5431 35.3166 83.0272 37.0017 94.2659C38.6869 105.505 43.2759 116.109 50.315 125.031C57.3541 133.953 66.5997 140.884 77.1379 145.138L76.7468 146.107Z" fill="white"/>
<path id="Ellipse 68" d="M80.7117 135.639C71.7888 132.037 63.9605 126.168 58.0003 118.614C52.0402 111.06 48.1546 102.081 46.7278 92.5648C45.3009 83.0487 46.3821 73.325 49.8645 64.3549C53.3468 55.3847 59.1099 47.4785 66.5838 41.418C74.0578 35.3574 82.9841 31.3522 92.4802 29.7982C101.976 28.2443 111.714 29.1954 120.73 32.5575C129.745 35.9197 137.728 41.5765 143.888 48.9688C150.048 56.3611 154.172 65.233 155.853 74.7075L154.995 74.8596C153.341 65.5343 149.282 56.8021 143.219 49.5263C137.156 42.2504 129.299 36.6826 120.425 33.3734C111.551 30.0642 101.967 29.1281 92.6208 30.6576C83.2742 32.187 74.4886 36.1292 67.1323 42.0943C59.776 48.0594 54.1037 55.8411 50.6762 64.67C47.2487 73.4989 46.1845 83.0695 47.5889 92.4357C48.9933 101.802 52.8177 110.639 58.6839 118.075C64.5502 125.51 72.2553 131.286 81.0376 134.831L80.7117 135.639Z" fill="white"/>
<path id="Ellipse 69" d="M85.4205 124.587C78.457 121.776 72.3476 117.197 67.6963 111.301C63.0449 105.406 60.0126 98.3983 58.899 90.9718C57.7855 83.5454 58.6293 75.9569 61.3469 68.9565C64.0646 61.9561 68.5622 55.786 74.3949 51.0563C80.2277 46.3265 87.1938 43.2008 94.6047 41.9881C102.016 40.7754 109.615 41.5176 116.651 44.1415C123.687 46.7654 129.917 51.18 134.724 56.9491C139.531 62.7181 142.75 69.6418 144.061 77.0358L143.392 77.1545C142.101 69.8769 138.933 63.0623 134.202 57.3841C129.47 51.7059 123.339 47.3608 116.413 44.7782C109.488 42.1957 102.009 41.4651 94.7145 42.6587C87.4203 43.8524 80.5639 46.9289 74.823 51.5841C69.082 56.2394 64.6553 62.3122 61.9804 69.2024C59.3056 76.0926 58.4751 83.5616 59.5711 90.8711C60.6671 98.1805 63.6517 105.077 68.2298 110.88C72.8079 116.683 78.821 121.19 85.6748 123.957L85.4205 124.587Z" fill="white"/>
</g>
</svg>
