<svg width="126" height="123" viewBox="0 0 126 123" fill="none" xmlns="http://www.w3.org/2000/svg">
<path id="Vector" d="M60.9579 10.5826L63.1728 1.81836L65.3864 10.5826C69.6215 27.341 87.9873 36.1853 103.73 29.0477L111.963 25.3144L106.492 32.5113C96.0304 46.2705 100.566 66.1442 115.962 74.0016L124.014 78.1115L114.977 78.3205C97.6958 78.7204 84.9867 94.6571 88.4426 111.593L90.2499 120.451L84.4514 113.516C73.3651 100.253 52.9805 100.253 41.8943 113.516L36.0957 120.451L37.9017 111.593C41.3589 94.6571 28.6485 78.7204 11.3677 78.3205L2.32996 78.1115L10.3821 74.0016C25.7783 66.1442 30.3139 46.2705 19.852 32.5113L14.3811 25.3144L22.6139 29.0477C38.3571 36.1865 56.7228 27.341 60.9579 10.5826Z" stroke="#E6EAFF" stroke-width="3.225" stroke-linecap="round" stroke-linejoin="round"/>
</svg>
