<svg width="123" height="120" viewBox="0 0 123 120" fill="none" xmlns="http://www.w3.org/2000/svg">
<path id="Vector" d="M59.0579 9.68418L61.2728 0.919922L63.4864 9.68418C67.7215 26.4426 86.0872 35.2868 101.83 28.1492L110.063 24.416L104.592 31.6129C94.1304 45.372 98.666 65.2458 114.062 73.1032L122.114 77.2131L113.077 77.4221C95.7958 77.822 83.0867 93.7587 86.5426 110.695L88.3499 119.552L82.5513 112.617C71.4651 99.3547 51.0805 99.3547 39.9942 112.617L34.1957 119.552L36.0017 110.695C39.4589 93.7587 26.7485 77.822 9.46767 77.4221L0.429932 77.2131L8.48211 73.1032C23.8783 65.2458 28.4139 45.372 17.952 31.6129L12.4811 24.416L20.7139 28.1492C36.4571 35.2881 54.8228 26.4426 59.0579 9.68418Z" fill="#E6EAFF"/>
</svg>
